<?xml version="1.0" standalone="no"?><!DOCTYPE svg PUBLIC "-//W3C//DTD SVG 1.1//EN" "http://www.w3.org/Graphics/SVG/1.1/DTD/svg11.dtd"><svg width="100%" height="100%" viewBox="0 0 45 38" version="1.1" xmlns="http://www.w3.org/2000/svg" xmlns:xlink="http://www.w3.org/1999/xlink" xml:space="preserve" style="fill-rule:evenodd;clip-rule:evenodd;stroke-miterlimit:10;"><g id="OBJECTS"><path d="M43.051,12.039c0,-5.825 -4.722,-10.548 -10.548,-10.548c-4.9,0 -9.008,3.347 -10.193,7.875c-1.184,-4.528 -5.292,-7.875 -10.192,-7.875c-5.826,0 -10.548,4.723 -10.548,10.548c0,2.865 1.146,5.46 3,7.361l-0.002,0.002l0.048,0.048c0.03,0.031 0.06,0.061 0.09,0.09l16.867,16.867l17.778,-16.354c2.261,-1.935 3.7,-4.804 3.7,-8.014" style="fill:#1d1d1b;fill-rule:nonzero;"/><path d="M43.051,12.039c0,-5.825 -4.722,-10.548 -10.548,-10.548c-4.9,0 -9.008,3.347 -10.193,7.875c-1.184,-4.528 -5.292,-7.875 -10.192,-7.875c-5.826,0 -10.548,4.723 -10.548,10.548c0,2.865 1.146,5.46 3,7.361l-0.002,0.002l0.048,0.048c0.03,0.031 0.06,0.061 0.09,0.09l16.867,16.867l17.778,-16.354c2.261,-1.935 3.7,-4.804 3.7,-8.014Z" style="fill:none;stroke-width:2px;stroke:#1d1d1b;"/></g></svg>